<svg width="126" height="32" viewBox="0 0 126 32" fill="none" xmlns="http://www.w3.org/2000/svg">
<g id="Logo">
<g id="24 / Logo / Rostelecom Fill">
<path id="Union" fill-rule="evenodd" clip-rule="evenodd" d="M8.00159 12.5734V25.1663C8.00159 25.1663 8.00204 25.1667 8.00293 25.1676V26.2607C8.00293 27.08 8.25314 27.8798 8.8608 28.4745C9.46887 29.0695 10.3061 29.3333 11.2267 29.3333H20.8966C21.4882 29.3333 21.7867 28.6201 21.3714 28.1987L14.6605 21.3897C18.5589 17.5496 22.4762 13.6791 23.8043 12.3665C24.0677 12.1061 24.0639 11.6853 23.8013 11.4241L15.1925 2.86259C14.9326 2.60409 14.5127 2.60395 14.2526 2.86229L9.33509 7.7465C7.99043 9.0818 7.9948 10.3986 8.00077 12.2001C8.00118 12.3223 8.00159 12.4466 8.00159 12.5734ZM13.2104 22.8176C12.3209 23.6931 11.4497 24.5497 10.629 25.3557C10.1919 25.7849 10.0254 26.1576 10.0731 26.5388C10.1134 26.7905 10.2075 26.9456 10.3048 27.0407C10.4332 27.1664 10.6955 27.313 11.2267 27.313H17.6409L13.2104 22.8176Z" fill="#101828"/>
</g>
<g id="Rostelecom">
<path d="M36 8.09108V23.5988H40.6745C45.5262 23.5988 49.1151 21.0511 49.1151 15.8449C49.1151 10.6388 45.5262 8.09108 40.6745 8.09108H36ZM40.8738 20.896H38.9243V10.7938H40.8738C44.0197 10.7938 46.1465 12.4775 46.1465 15.8449C46.1465 19.2123 44.0197 20.896 40.8738 20.896Z" fill="#101828"/>
<path d="M58.0599 23.5988H60.8291C60.5854 22.8455 60.4746 22.0702 60.4746 20.8738V16.288C60.4746 13.6074 58.7023 12.3003 55.6229 12.3003C52.7429 12.3003 51.0371 13.8068 51.0371 15.5126C51.0371 15.6677 51.0371 15.8892 51.0814 16.0886L53.7177 15.8006C53.6956 15.712 53.6956 15.5791 53.6956 15.4905C53.6956 14.8037 54.4045 14.2498 55.6229 14.2498C57.0186 14.2498 57.6833 14.848 57.6833 15.9114V16.4652L54.3823 16.9083C52.1448 17.2185 50.4611 18.2375 50.4611 20.4751C50.4611 22.5575 51.9897 23.9089 54.1608 23.9089C55.7337 23.9089 57.0629 23.2222 57.8383 21.8486C57.8383 22.5575 57.9491 23.1557 58.0599 23.5988ZM54.7589 21.6492C53.8949 21.6492 53.186 21.2062 53.186 20.32C53.186 19.3895 53.8285 18.9465 55.0248 18.7692L57.6833 18.3926V18.592C57.6833 20.7188 56.3762 21.6492 54.7589 21.6492Z" fill="#101828"/>
<path d="M61.6343 12.6105V14.8702H63.3401V20.4086C63.3401 23.1114 64.9573 23.9089 66.8626 23.9089C67.505 23.9089 68.2361 23.776 68.7235 23.5988L68.4576 21.2948C68.2361 21.3612 67.9481 21.4277 67.5272 21.4277C66.6853 21.4277 66.1315 21.0068 66.1315 19.8769V14.8702H68.5241V12.6105H66.1315V9.64185H63.3401V12.6105H61.6343Z" fill="#101828"/>
<path d="M77.7041 23.5988H80.4733C80.2296 22.8455 80.1189 22.0702 80.1189 20.8738V16.288C80.1189 13.6074 78.3466 12.3003 75.2672 12.3003C72.3872 12.3003 70.6813 13.8068 70.6813 15.5126C70.6813 15.6677 70.6813 15.8892 70.7256 16.0886L73.3619 15.8006C73.3398 15.712 73.3398 15.5791 73.3398 15.4905C73.3398 14.8037 74.0487 14.2498 75.2672 14.2498C76.6629 14.2498 77.3275 14.848 77.3275 15.9114V16.4652L74.0266 16.9083C71.789 17.2185 70.1053 18.2375 70.1053 20.4751C70.1053 22.5575 71.6339 23.9089 73.805 23.9089C75.3779 23.9089 76.7072 23.2222 77.4826 21.8486C77.4826 22.5575 77.5933 23.1557 77.7041 23.5988ZM74.4032 21.6492C73.5392 21.6492 72.8302 21.2062 72.8302 20.32C72.8302 19.3895 73.4727 18.9465 74.669 18.7692L77.3275 18.3926V18.592C77.3275 20.7188 76.0204 21.6492 74.4032 21.6492Z" fill="#101828"/>
<path d="M82.8173 23.5988H85.7416V18.1932H89.8622C93.3625 18.1932 95.6665 16.3988 95.6665 13.1422C95.6665 9.88554 93.3625 8.09108 89.8622 8.09108H82.8173V23.5988ZM85.7416 15.5791V10.7052H89.7736C91.8118 10.7052 92.7422 11.68 92.7422 13.1422C92.7422 14.6043 91.8118 15.5791 89.7736 15.5791H85.7416Z" fill="#101828"/>
<path d="M108.242 18.1046C108.242 14.2498 105.251 12.3003 102.238 12.3003C99.225 12.3003 96.2342 14.2498 96.2342 18.1046C96.2342 21.9594 99.225 23.9089 102.238 23.9089C105.251 23.9089 108.242 21.9594 108.242 18.1046ZM102.238 21.2948C100.599 21.2948 99.0699 20.1206 99.0699 18.1046C99.0699 16.0886 100.599 14.9145 102.238 14.9145C103.877 14.9145 105.406 16.0886 105.406 18.1046C105.406 20.1206 103.877 21.2948 102.238 21.2948Z" fill="#101828"/>
<path d="M116.603 15.0695L117.047 12.4332C116.759 12.3446 116.448 12.3003 116.094 12.3003C114.676 12.3003 113.657 13.0978 113.037 14.3606V12.6105H110.245V23.5988H113.037V18.1711C113.037 16.3102 114.034 14.9145 115.695 14.9145C116.05 14.9145 116.36 14.9809 116.603 15.0695Z" fill="#101828"/>
<path d="M118.209 12.6105V14.8702H119.915V20.4086C119.915 23.1114 121.532 23.9089 123.437 23.9089C124.08 23.9089 124.811 23.776 125.298 23.5988L125.032 21.2948C124.811 21.3612 124.523 21.4277 124.102 21.4277C123.26 21.4277 122.706 21.0068 122.706 19.8769V14.8702H125.099V12.6105H122.706V9.64185H119.915V12.6105H118.209Z" fill="#101828"/>
</g>
</g>
</svg>
