<svg width="18" height="15" viewBox="0 0 18 15" fill="none" xmlns="http://www.w3.org/2000/svg">
<path id="rt-eye-opened" fill-rule="evenodd" clip-rule="evenodd" d="M9.75001 3L9.75001 0H8.25001V3H9.75001ZM15.4871 4.49525L16.9871 1.99525L15.7009 1.2235L14.2009 3.7235L15.4871 4.49525ZM1.01315 1.99525L2.51315 4.49525L3.79939 3.7235L2.29939 1.2235L1.01315 1.99525ZM1.67927 10.0007C3.3303 12.1178 5.98839 13.5009 8.99906 13.5009C12.01 13.5009 14.6683 12.1176 16.3193 10.0001C15.2832 8.67153 13.8504 7.63201 12.1828 7.04199C12.3865 7.48585 12.5 7.97967 12.5 8.5C12.5 10.433 10.933 12 9.00003 12C7.06703 12 5.50003 10.433 5.50003 8.5C5.50003 7.9795 5.61365 7.48553 5.81744 7.04155C4.14906 7.63158 2.71569 8.6715 1.67927 10.0007ZM17.8667 9.57578C15.9711 6.81311 12.7011 5.00011 8.99984 5H8.99951C5.29775 5 2.0274 6.81334 0.13179 9.57648C-0.0436177 9.83217 -0.0436033 10.1694 0.131826 10.4251C2.02751 13.1878 5.29762 15.0009 8.99906 15.0009C12.7008 15.0009 15.9712 13.1875 17.8668 10.4244C18.0422 10.1687 18.0422 9.83145 17.8667 9.57578ZM9.00003 10.5C10.1046 10.5 11 9.60457 11 8.5C11 7.39543 10.1046 6.5 9.00003 6.5C7.89546 6.5 7.00003 7.39543 7.00003 8.5C7.00003 9.60457 7.89546 10.5 9.00003 10.5Z" fill="#101828" fill-opacity="0.5"/>
</svg>
