<svg width="18" height="11" viewBox="0 0 18 11" fill="none" xmlns="http://www.w3.org/2000/svg">
<path id="rt-eye-closed" fill-rule="evenodd" clip-rule="evenodd" d="M1.26109 0.406494L1.37637 0.585615C2.99303 2.93794 5.79701 4.50509 8.99981 4.50509C12.2019 4.50509 15.0053 2.93867 16.6221 0.587276L16.7335 0.411269L18.0009 1.21354L17.8821 1.40134C17.8772 1.40905 17.8722 1.41666 17.867 1.42418C15.9717 4.18981 12.7016 6.0051 8.99981 6.0051C5.29833 6.0051 2.02847 4.19012 0.13309 1.42489C0.12899 1.41891 0.124977 1.41287 0.121053 1.40677L-0.000244141 1.21831L1.26109 0.406494ZM8.25029 7.99997L8.25029 11H9.75029V7.99997H8.25029ZM2.51317 6.50472L1.01317 9.00472L2.29941 9.77647L3.79941 7.27647L2.51317 6.50472ZM16.9872 9.00472L15.4872 6.50472L14.2009 7.27647L15.7009 9.77647L16.9872 9.00472Z" fill="#101828" fill-opacity="0.5"/>
</svg>
