<svg width="16" height="20" viewBox="0 0 16 20" fill="none" xmlns="http://www.w3.org/2000/svg">
<path id="rt-map-marker" fill-rule="evenodd" clip-rule="evenodd" d="M14.5 7.48264C14.5 9.15596 14.2433 10.324 13.339 11.8289C12.4097 13.3756 10.8032 15.2663 8.00327 18.2688C5.19984 15.2661 3.59173 13.3752 2.66161 11.8286C1.75667 10.3238 1.5 9.15594 1.5 7.48264C1.5 4.42376 4.33729 1.5 8 1.5C11.6627 1.5 14.5 4.42376 14.5 7.48264ZM16 7.48264C16 11.2921 14.7554 13.2558 8.73205 19.6858C8.3389 20.1055 7.66871 20.1057 7.27532 19.6862C1.24465 13.2559 0 11.2922 0 7.48264C0 3.5243 3.58172 0 8 0C12.4183 0 16 3.5243 16 7.48264ZM9.5 8C9.5 8.82843 8.82843 9.5 8 9.5C7.17157 9.5 6.5 8.82843 6.5 8C6.5 7.17157 7.17157 6.5 8 6.5C8.82843 6.5 9.5 7.17157 9.5 8ZM11 8C11 9.65685 9.65685 11 8 11C6.34315 11 5 9.65685 5 8C5 6.34315 6.34315 5 8 5C9.65685 5 11 6.34315 11 8Z" fill="#4075FF"/>
</svg>
